<svg width="47" height="47" viewBox="0 0 47 47" fill="none" xmlns="http://www.w3.org/2000/svg">
<path d="M32.3125 18.4083L14.6875 8.24455M6.40375 13.63L23.5 23.5196L40.5962 13.63M23.5 43.24V23.5M41.125 31.3333V15.6666C41.1243 14.9798 40.943 14.3052 40.5993 13.7106C40.2555 13.1159 39.7615 12.6221 39.1667 12.2787L25.4583 4.44539C24.8629 4.10163 24.1875 3.92065 23.5 3.92065C22.8125 3.92065 22.1371 4.10163 21.5417 4.44539L7.83333 12.2787C7.23851 12.6221 6.74446 13.1159 6.40074 13.7106C6.05701 14.3052 5.8757 14.9798 5.875 15.6666V31.3333C5.8757 32.0201 6.05701 32.6947 6.40074 33.2894C6.74446 33.884 7.23851 34.3778 7.83333 34.7212L21.5417 42.5546C22.1371 42.8983 22.8125 43.0793 23.5 43.0793C24.1875 43.0793 24.8629 42.8983 25.4583 42.5546L39.1667 34.7212C39.7615 34.3778 40.2555 33.884 40.5993 33.2894C40.943 32.6947 41.1243 32.0201 41.125 31.3333Z" stroke="#F5F5F5" stroke-width="4" stroke-linecap="round" stroke-linejoin="round"/>
</svg>
